<svg
  width="30"
  height="30"
  viewBox="0 0 24 24"
  fill="none"
  xmlns="http://www.w3.org/2000/svg"
>
  <path
    d="M10.24 23.84c-.04 0-.04 0-.08 0-.4-.04-.72-.36-.76-.76l-1-9.96-.88 2.72c-.12.36-.44.56-.8.56H.84A.83.83 0 0 1 0 15.6c0-.44.36-.84.84-.84h5.32l1.92-6c.12-.36.48-.6.88-.56s.68.36.72.76l.96 9.72 2.04-6.96c.12-.36.4-.6.8-.6.36 0 .68.28.8.64l1.12 4.84.84-1.24c.16-.24.4-.36.68-.36h5.28c.44 0 .84.36.84.84s-.36.84-.84.84h-4.84l-1.64 2.44c-.2.28-.52.4-.84.36s-.6-.32-.64-.64l-.84-3.6-2.36 8.08c-.12.28-.44.52-.8.52z"
    fill="#1E40AF"
  />
</svg>